<svg width="24" height="24" viewBox="0 0 24 24" fill="none" xmlns="http://www.w3.org/2000/svg">
<g id="Action / Folder">
<path id="Union" fill-rule="evenodd" clip-rule="evenodd" d="M3 5.25C2.58579 5.25 2.25 5.58579 2.25 6V18C2.25 18.133 2.28533 18.2658 2.35568 18.3839C2.49095 18.6109 2.73572 18.75 3 18.75H17.2105C17.4858 18.75 17.739 18.5992 17.8701 18.3571L21.6596 11.3571C21.7854 11.1246 21.7796 10.8432 21.6443 10.6161C21.5091 10.3891 21.2643 10.25 21 10.25H17.75V8C17.75 7.58579 17.4142 7.25 17 7.25H10.3403L8.81443 5.50612C8.67202 5.34336 8.46627 5.25 8.25 5.25H3ZM16.25 10.25V8.75H10C9.78373 8.75 9.57798 8.65664 9.43557 8.49388L7.90967 6.75H3.75V15.0392L6.12992 10.6429C6.26099 10.4008 6.51416 10.25 6.78947 10.25H16.25ZM4.25886 17.25L7.23631 11.75H19.7411L16.7637 17.25H4.25886Z" fill="#C4C9CC"/>
</g>
</svg>
