<svg width="16" height="18" viewBox="0 0 16 18" fill="none" xmlns="http://www.w3.org/2000/svg">
<path fill-rule="evenodd" clip-rule="evenodd" d="M6.65226 16.6595C5.94775 17.3582 4.99498 17.75 4.00225 17.75C3.00917 17.75 2.05608 17.3579 1.35151 16.6587L1.35046 16.6577C1.00173 16.3103 0.72497 15.8976 0.536105 15.4433C0.347237 14.9889 0.249999 14.5018 0.249999 14.0098C0.249999 13.5178 0.347237 13.0307 0.536106 12.5764C0.72497 12.122 1.00173 11.7093 1.35046 11.3619L1.35281 11.3596L8.90924 3.89803C8.90977 3.8975 8.91031 3.89696 8.91085 3.89643C9.11957 3.68849 9.36714 3.52361 9.63943 3.41106C9.91242 3.29822 10.205 3.24017 10.5003 3.24017C10.7957 3.24017 11.0882 3.29822 11.3612 3.41106C11.6342 3.52388 11.8822 3.68927 12.0913 3.89789M6.65226 16.6595C6.6525 16.6592 6.65274 16.659 6.65299 16.6587ZM6.65299 16.6587L14.211 9.19558L14.2144 9.1922C15.1975 8.20889 15.75 6.87655 15.75 5.4871C15.75 4.09765 15.1975 2.76531 14.2144 1.78201L14.2128 1.78044C13.2268 0.800117 11.8918 0.250002 10.5003 0.250001C9.1089 0.250001 7.77381 0.800117 6.78783 1.78044L4.26322 4.35237L5.3337 5.40312L7.84854 2.84106C8.55273 2.14255 9.50607 1.75 10.5003 1.75C11.4956 1.75 12.45 2.14338 13.1544 2.84328C13.8563 3.54566 14.25 4.49639 14.25 5.4871C14.25 6.47738 13.8566 7.4277 13.1553 8.12999L5.59644 15.594C5.17327 16.0139 4.60013 16.25 4.00225 16.25C3.40466 16.25 2.83179 16.0141 2.40868 15.5946C2.19979 15.3864 2.03419 15.1393 1.92121 14.8675C1.80816 14.5956 1.75 14.3041 1.75 14.0098C1.75 13.7155 1.80816 13.4241 1.92121 13.1521C2.03407 12.8806 2.19946 12.6337 2.40804 12.4257C2.4084 12.4253 2.40875 12.425 2.4091 12.4246L9.96606 4.9625L9.96895 4.95964C10.0385 4.8902 10.1212 4.835 10.2124 4.7973C10.3036 4.7596 10.4015 4.74017 10.5003 4.74017C10.5992 4.74017 10.697 4.7596 10.7882 4.7973C10.8794 4.835 10.9621 4.8902 11.0317 4.95964C11.1013 5.02901 11.157 5.1118 11.1946 5.20218C11.2321 5.29257 11.2515 5.38938 11.2515 5.4871C11.2515 5.58482 11.2321 5.68163 11.1946 5.77202C11.157 5.86241 11.1019 5.94467 11.0322 6.01403L8.46321 8.63124L9.53369 9.68199L12.0941 7.07346C12.3019 6.86566 12.4669 6.61913 12.5797 6.34776C12.6931 6.07499 12.7515 5.78252 12.7515 5.4871C12.7515 5.19168 12.6931 4.89922 12.5797 4.62644C12.4664 4.35389 12.3003 4.10626 12.0913 3.89789" fill="#7A8084"/>
</svg>
