<svg width="40" height="17" viewBox="0 0 40 17" fill="none" xmlns="http://www.w3.org/2000/svg">
<path fill-rule="evenodd" clip-rule="evenodd" d="M7.95779 15.1666C11.9798 15.1666 15.2403 11.9828 15.2403 8.05545C15.2403 4.12809 11.9798 0.944336 7.95779 0.944336C3.93579 0.944336 0.675323 4.12809 0.675323 8.05545C0.675323 9.83458 1.34443 11.4611 2.45032 12.7082L2.87514 15.9447C2.91336 16.2358 3.22493 16.4114 3.50222 16.2982L6.583 15.04C7.0282 15.1231 7.4878 15.1666 7.95779 15.1666ZM8.63849 5.61429C8.96224 5.699 9.15436 6.02394 9.06761 6.34006L8.04666 10.0607C7.95991 10.3768 7.62714 10.5644 7.3034 10.4797C6.97965 10.395 6.78752 10.07 6.87427 9.75392L7.89523 6.03332C7.98197 5.71719 8.31474 5.52958 8.63849 5.61429ZM3.2966 8.48994C3.05086 8.24998 3.05085 7.86092 3.2966 7.62095L5.10138 5.85864C5.33838 5.62722 5.72263 5.62722 5.95963 5.85864C6.19662 6.09006 6.19662 6.46527 5.95963 6.69669L4.56813 8.05544L5.95963 9.41419C6.19662 9.64562 6.19662 10.0208 5.95963 10.2522C5.72263 10.4837 5.33838 10.4837 5.10138 10.2522L3.2966 8.48994ZM12.6194 7.62095C12.8651 7.86092 12.8651 8.24998 12.6194 8.48994L10.8146 10.2522C10.5776 10.4837 10.1934 10.4837 9.95636 10.2522C9.71936 10.0208 9.71936 9.64562 9.95636 9.41419L11.3478 8.05544L9.95636 6.69669C9.71936 6.46527 9.71936 6.09006 9.95636 5.85864C10.1934 5.62722 10.5776 5.62722 10.8146 5.85864L12.6194 7.62095Z" fill="#C4C9CC"/>
<path fill-rule="evenodd" clip-rule="evenodd" d="M24.7571 9.99626C24.7571 8.71985 24.1489 7.90879 22.9325 7.56309C23.2683 7.36809 23.5225 7.1066 23.695 6.77863C23.8675 6.4418 23.9537 6.04735 23.9537 5.59528C23.9537 4.85071 23.7222 4.28784 23.2593 3.90669C22.7963 3.52554 22.1155 3.33496 21.2168 3.33496H17.8399V12.6422H21.6798C22.6329 12.6422 23.3818 12.4073 23.9265 11.9375C24.4802 11.4677 24.7571 10.8206 24.7571 9.99626ZM20.9989 7.07114H19.4194V4.70445H20.9989C21.4528 4.70445 21.7932 4.79752 22.0202 4.98367C22.2562 5.16095 22.3742 5.46232 22.3742 5.8878C22.3742 6.31327 22.2562 6.61908 22.0202 6.80522C21.7932 6.9825 21.4528 7.07114 20.9989 7.07114ZM23.0959 9.8633C23.0959 10.794 22.5557 11.2594 21.4755 11.2594H19.4194V8.45393H21.4755C21.9839 8.45393 22.3787 8.56473 22.6601 8.78633C22.9506 8.99906 23.0959 9.35806 23.0959 9.8633Z" fill="#C4C9CC"/>
<path d="M27.2676 3.33496H25.7425V4.864H27.2676V3.33496Z" fill="#C4C9CC"/>
<path d="M27.2676 6.04735H25.7425V12.6422H27.2676V6.04735Z" fill="#C4C9CC"/>
<path d="M30.9912 12.7751C30.4012 12.7751 29.9519 12.6111 29.6432 12.2832C29.3437 11.9552 29.1939 11.5608 29.1939 11.0998V7.24399H28.1727L28.3088 6.04735H29.1939V4.5316L30.7189 4.37205V6.04735H32.312V7.24399H30.7189V10.4084C30.7189 10.7985 30.7416 11.0688 30.787 11.2195C30.8324 11.3613 30.9277 11.4544 31.0729 11.4987C31.2273 11.543 31.4996 11.5652 31.8899 11.5652H32.2984L32.1623 12.7751H30.9912Z" fill="#C4C9CC"/>
<path fill-rule="evenodd" clip-rule="evenodd" d="M34.2824 12.3231C34.7998 12.6244 35.408 12.7751 36.107 12.7751C36.815 12.7751 37.4277 12.6244 37.9452 12.3231C38.4626 12.0128 38.8575 11.5962 39.1298 11.0732C39.4021 10.5503 39.5383 9.9741 39.5383 9.34476C39.5383 8.71542 39.4021 8.13925 39.1298 7.61628C38.8575 7.0933 38.4626 6.68113 37.9452 6.37975C37.4277 6.06951 36.815 5.91439 36.107 5.91439C35.408 5.91439 34.7998 6.06951 34.2824 6.37975C33.7649 6.68113 33.3655 7.0933 33.0841 7.61628C32.8118 8.13925 32.6756 8.71542 32.6756 9.34476C32.6756 9.9741 32.8118 10.5503 33.0841 11.0732C33.3655 11.5962 33.7649 12.0128 34.2824 12.3231ZM37.4822 10.9403C37.1554 11.3303 36.697 11.5253 36.107 11.5253C35.5169 11.5253 35.0585 11.3303 34.7317 10.9403C34.4049 10.5503 34.2415 10.0184 34.2415 9.34476C34.2415 8.67996 34.4049 8.15255 34.7317 7.76253C35.0585 7.36365 35.5169 7.16421 36.107 7.16421C36.697 7.16421 37.1554 7.36365 37.4822 7.76253C37.8181 8.15255 37.986 8.67996 37.986 9.34476C37.986 10.0184 37.8181 10.5503 37.4822 10.9403Z" fill="#C4C9CC"/>
</svg>
