<svg width="13" height="13" viewBox="0 0 13 13" fill="none" xmlns="http://www.w3.org/2000/svg">
<path d="M6.30762 12.6406C7.13525 12.6406 7.93359 12.5308 8.5415 12.3403V11.2563C8.1167 11.4321 7.24512 11.5493 6.38086 11.5493C3.26074 11.5493 1.27588 9.61572 1.27588 6.5835V6.56885C1.27588 3.59521 3.27539 1.50049 6.11719 1.50049C8.95166 1.50049 10.8486 3.26562 10.8486 5.90234V5.91699C10.8486 7.52832 10.3359 8.56836 9.52295 8.56836C9.04688 8.56836 8.77588 8.26074 8.77588 7.74805V3.69043H7.43555V4.56934H7.30371C7.01807 3.9248 6.37354 3.53662 5.59717 3.53662C4.11768 3.53662 3.09961 4.75977 3.09961 6.53223V6.54688C3.09961 8.3999 4.11768 9.64502 5.64111 9.64502C6.49072 9.64502 7.11328 9.24219 7.4209 8.50244H7.55273L7.56006 8.54639C7.70654 9.23486 8.36572 9.68164 9.24463 9.68164C10.9878 9.68164 12.0791 8.20215 12.0791 5.8584V5.84375C12.0791 2.63574 9.67676 0.423828 6.18311 0.423828C2.54297 0.423828 0.0454102 2.91406 0.0454102 6.5249V6.53955C0.0454102 10.2383 2.50635 12.6406 6.30762 12.6406ZM5.92676 8.40723C5.0918 8.40723 4.5791 7.71875 4.5791 6.59082V6.57617C4.5791 5.43359 5.08447 4.75244 5.93408 4.75244C6.79834 4.75244 7.34033 5.45557 7.34033 6.57617V6.59082C7.34033 7.7041 6.79102 8.40723 5.92676 8.40723Z" fill="#7A8084"/>
</svg>
