<svg width="14" height="14" viewBox="0 0 14 14" fill="none" xmlns="http://www.w3.org/2000/svg">
<path d="M12.0303 1.24542C10.6965 -0.0884248 8.50681 -0.0711219 7.14035 1.23323L7.121 1.2517L5.99108 2.49574L7.10144 3.50425L8.19403 2.30132C8.99323 1.55635 10.2334 1.57661 10.9635 2.29998C11.7217 3.10097 11.7025 4.35434 10.9697 5.08721L10.9589 5.09796L8.30156 7.97992C7.60928 8.66225 6.56399 8.65898 5.8751 7.97009L5.53033 7.62531L4.46967 8.68597L4.81444 9.03075C6.09241 10.3087 8.09415 10.3087 9.37212 9.03075L9.38286 9.02L12.0417 6.13643C13.3641 4.80154 13.3431 2.62046 12.0425 1.25789L12.0365 1.25158L12.0303 1.24542Z" fill="#7A8084"/>
<path d="M8.18555 5.24243C6.90759 3.96446 4.90585 3.96446 3.62788 5.24243L3.62108 5.24922L1.23821 7.75749C-0.0883581 9.092 -0.0687686 11.2762 1.23323 12.6402L1.23925 12.6465L1.24542 12.6527C2.57926 13.9866 4.76893 13.9693 6.1354 12.6649L6.15928 12.6421L7.06354 11.6124L5.93646 10.6226L5.07747 11.6008C4.27812 12.3417 3.04108 12.3202 2.3122 11.5982C1.55406 10.7972 1.57321 9.54379 2.30608 8.81092L2.31287 8.80413L4.69479 6.29686C5.38704 5.61091 6.43479 5.61299 7.12489 6.30309L7.46967 6.64786L8.53033 5.5872L8.18555 5.24243Z" fill="#7A8084"/>
</svg>
