<svg width="24" height="24" viewBox="0 0 24 24" fill="none" xmlns="http://www.w3.org/2000/svg">
  <g clip-path="url(#clip0_2668_4110)">
  <mask id="mask0_2668_4110" style="mask-type:alpha" maskUnits="userSpaceOnUse" x="4" y="4" width="24" height="24">
  <rect x="4" y="4" width="24" height="24" fill="#D9D9D9"/>
  </mask>
  <g mask="url(#mask0_2668_4110)">
  <path d="M16 18.6663C15.4444 18.6663 14.9722 18.4719 14.5833 18.083C14.1944 17.6941 14 17.2219 14 16.6663C14 16.5886 14.0056 16.5079 14.0167 16.4243C14.0278 16.3412 14.0444 16.2663 14.0667 16.1997L9.36667 13.4663C9.17778 13.633 8.96667 13.7635 8.73333 13.8577C8.5 13.9523 8.25556 13.9997 8 13.9997C7.44444 13.9997 6.97222 13.8052 6.58333 13.4163C6.19444 13.0275 6 12.5552 6 11.9997C6 11.4441 6.19444 10.9719 6.58333 10.583C6.97222 10.1941 7.44444 9.99967 8 9.99967C8.25556 9.99967 8.5 10.0468 8.73333 10.141C8.96667 10.2357 9.17778 10.3663 9.36667 10.533L14.0667 7.79967C14.0444 7.73301 14.0278 7.65812 14.0167 7.57501C14.0056 7.49145 14 7.41079 14 7.33301C14 6.77745 14.1944 6.30523 14.5833 5.91634C14.9722 5.52745 15.4444 5.33301 16 5.33301C16.5556 5.33301 17.0278 5.52745 17.4167 5.91634C17.8056 6.30523 18 6.77745 18 7.33301C18 7.88856 17.8056 8.36079 17.4167 8.74967C17.0278 9.13856 16.5556 9.33301 16 9.33301C15.7444 9.33301 15.5 9.28567 15.2667 9.19101C15.0333 9.09679 14.8222 8.96634 14.6333 8.79967L9.93333 11.533C9.95556 11.5997 9.97222 11.6746 9.98333 11.7577C9.99444 11.8412 10 11.9219 10 11.9997C10 12.0775 9.99444 12.1579 9.98333 12.241C9.97222 12.3246 9.95556 12.3997 9.93333 12.4663L14.6333 15.1997C14.8222 15.033 15.0333 14.9023 15.2667 14.8077C15.5 14.7135 15.7444 14.6663 16 14.6663C16.5556 14.6663 17.0278 14.8608 17.4167 15.2497C17.8056 15.6386 18 16.1108 18 16.6663C18 17.2219 17.8056 17.6941 17.4167 18.083C17.0278 18.4719 16.5556 18.6663 16 18.6663ZM16 7.99967C16.1889 7.99967 16.3471 7.9359 16.4747 7.80834C16.6027 7.68034 16.6667 7.5219 16.6667 7.33301C16.6667 7.14412 16.6027 6.98567 16.4747 6.85767C16.3471 6.73012 16.1889 6.66634 16 6.66634C15.8111 6.66634 15.6529 6.73012 15.5253 6.85767C15.3973 6.98567 15.3333 7.14412 15.3333 7.33301C15.3333 7.5219 15.3973 7.68034 15.5253 7.80834C15.6529 7.9359 15.8111 7.99967 16 7.99967ZM8 12.6663C8.18889 12.6663 8.34733 12.6023 8.47533 12.4743C8.60289 12.3468 8.66667 12.1886 8.66667 11.9997C8.66667 11.8108 8.60289 11.6523 8.47533 11.5243C8.34733 11.3968 8.18889 11.333 8 11.333C7.81111 11.333 7.65267 11.3968 7.52467 11.5243C7.39711 11.6523 7.33333 11.8108 7.33333 11.9997C7.33333 12.1886 7.39711 12.3468 7.52467 12.4743C7.65267 12.6023 7.81111 12.6663 8 12.6663ZM16 17.333C16.1889 17.333 16.3471 17.269 16.4747 17.141C16.6027 17.0135 16.6667 16.8552 16.6667 16.6663C16.6667 16.4775 16.6027 16.3192 16.4747 16.1917C16.3471 16.0637 16.1889 15.9997 16 15.9997C15.8111 15.9997 15.6529 16.0637 15.5253 16.1917C15.3973 16.3192 15.3333 16.4775 15.3333 16.6663C15.3333 16.8552 15.3973 17.0135 15.5253 17.141C15.6529 17.269 15.8111 17.333 16 17.333Z" fill="#C4C9CC"/>
  </g>
  </g>
  <defs>
  <clipPath id="clip0_2668_4110">
  <rect width="16" height="16" fill="white" transform="translate(4 4)"/>
  </clipPath>
  </defs>
  </svg>