<svg width="24" height="24" viewBox="0 0 24 24" fill="none" xmlns="http://www.w3.org/2000/svg">
<path d="M6.60183 14.5517C6.60183 15.6486 5.71531 16.5351 4.61842 16.5351C3.52153 16.5351 2.63501 15.6486 2.63501 14.5517C2.63501 13.4549 3.52153 12.5684 4.61842 12.5684H6.60183V14.5517ZM7.59354 14.5517C7.59354 13.4549 8.48006 12.5684 9.57695 12.5684C10.6738 12.5684 11.5604 13.4549 11.5604 14.5517V19.5101C11.5604 20.607 10.6738 21.4935 9.57695 21.4935C8.48006 21.4935 7.59354 20.607 7.59354 19.5101V14.5517Z" fill="#7A8084"/>
<path d="M9.57586 6.58783C8.47898 6.58783 7.59245 5.70133 7.59245 4.60446C7.59245 3.5076 8.47898 2.62109 9.57586 2.62109C10.6727 2.62109 11.5593 3.5076 11.5593 4.60446V6.58783H9.57586ZM9.57586 7.59454C10.6727 7.59454 11.5593 8.48105 11.5593 9.57791C11.5593 10.6748 10.6727 11.5613 9.57586 11.5613H4.60231C3.50542 11.5613 2.6189 10.6748 2.6189 9.57791C2.6189 8.48105 3.50542 7.59454 4.60231 7.59454H9.57586Z" fill="#7A8084"/>
<path d="M17.5254 9.57791C17.5254 8.48105 18.4119 7.59454 19.5088 7.59454C20.6057 7.59454 21.4922 8.48105 21.4922 9.57791C21.4922 10.6748 20.6057 11.5613 19.5088 11.5613H17.5254V9.57791ZM16.5337 9.57791C16.5337 10.6748 15.6472 11.5613 14.5503 11.5613C13.4534 11.5613 12.5669 10.6748 12.5669 9.57791V4.60446C12.5669 3.5076 13.4534 2.62109 14.5503 2.62109C15.6472 2.62109 16.5337 3.5076 16.5337 4.60446V9.57791Z" fill="#7A8084"/>
<path d="M14.5503 17.5268C15.6472 17.5268 16.5337 18.4133 16.5337 19.5101C16.5337 20.607 15.6472 21.4935 14.5503 21.4935C13.4534 21.4935 12.5669 20.607 12.5669 19.5101V17.5268H14.5503ZM14.5503 16.5351C13.4534 16.5351 12.5669 15.6486 12.5669 14.5517C12.5669 13.4549 13.4534 12.5684 14.5503 12.5684H19.5239C20.6207 12.5684 21.5073 13.4549 21.5073 14.5517C21.5073 15.6486 20.6207 16.5351 19.5239 16.5351H14.5503Z" fill="#7A8084"/>
</svg>