<svg width="24" height="24" viewBox="0 0 24 24" fill="none" xmlns="http://www.w3.org/2000/svg">
  <path d="M20.7418 6.47636C20.1712 6.72194 19.5713 6.89295 18.9569 6.98516C19.2441 6.93593 19.6668 6.41892 19.835 6.20965C20.0906 5.894 20.2854 5.53365 20.4094 5.14692C20.4094 5.11819 20.4382 5.07716 20.4094 5.05664C20.395 5.04874 20.3787 5.0446 20.3623 5.0446C20.3458 5.0446 20.3295 5.04874 20.3151 5.05664C19.648 5.4179 18.938 5.69362 18.2019 5.87729C18.1762 5.88513 18.1489 5.88583 18.1229 5.87933C18.0969 5.87282 18.0731 5.85935 18.0542 5.84036C17.9969 5.77214 17.9352 5.70772 17.8695 5.64751C17.5693 5.37852 17.2287 5.15837 16.8601 4.9951C16.3626 4.79099 15.8253 4.7026 15.2886 4.73659C14.7679 4.76948 14.2595 4.90915 13.795 5.14692C13.3377 5.39759 12.9357 5.73814 12.6133 6.1481C12.2741 6.57006 12.0293 7.05975 11.8952 7.58424C11.7846 8.08313 11.7721 8.59875 11.8583 9.10243C11.8583 9.1886 11.8583 9.20091 11.7844 9.1886C8.85881 8.75776 6.45842 7.71964 4.49707 5.49159C4.4109 5.39311 4.36576 5.39311 4.29601 5.49159C3.44253 6.78821 3.85696 8.83983 4.9238 9.85332C5.06742 9.98873 5.21513 10.12 5.37106 10.2431C4.88192 10.2084 4.40472 10.0759 3.96775 9.85332C3.88568 9.79998 3.84055 9.8287 3.83644 9.92718C3.82481 10.0637 3.82481 10.201 3.83644 10.3375C3.92206 10.9918 4.17992 11.6116 4.58364 12.1336C4.98737 12.6555 5.52248 13.0609 6.13426 13.3082C6.2834 13.3721 6.43879 13.4203 6.59793 13.4519C6.1451 13.541 5.68068 13.5549 5.22334 13.4929C5.12486 13.4724 5.08793 13.5257 5.12486 13.6201C5.72804 15.2614 7.03697 15.762 7.99713 16.041C8.12844 16.0615 8.25974 16.0615 8.40746 16.0943C8.40746 16.0943 8.40746 16.0943 8.38284 16.119C8.09971 16.636 6.95491 16.9847 6.42969 17.1653C5.47104 17.5096 4.44894 17.6412 3.43433 17.551C3.2743 17.5264 3.23737 17.5305 3.19634 17.551C3.15531 17.5715 3.19634 17.6166 3.24147 17.6577C3.44664 17.7931 3.6518 17.9121 3.86517 18.027C4.50037 18.3734 5.1719 18.6486 5.86755 18.8476C9.4702 19.8406 13.5242 19.1102 16.2282 16.4226C18.3537 14.3135 19.1005 11.4043 19.1005 8.49105C19.1005 8.38026 19.2359 8.31461 19.3139 8.25717C19.8516 7.83818 20.3257 7.34337 20.7213 6.78821C20.7898 6.70545 20.8249 6.60009 20.8198 6.49278C20.8198 6.43123 20.8198 6.44354 20.7418 6.47636Z" fill="#7A8084"/>
</svg>