<svg width="14" height="14" viewBox="0 0 14 14" fill="none" xmlns="http://www.w3.org/2000/svg">
<path d="M7.28545 14C8.24833 14 9.17712 13.8741 9.88436 13.6559V12.4137C9.39014 12.6151 8.37614 12.7494 7.37066 12.7494C3.74072 12.7494 1.43153 10.5336 1.43153 7.05875V7.04197C1.43153 3.63429 3.75776 1.23381 7.06391 1.23381C10.3615 1.23381 12.5685 3.25659 12.5685 6.27818V6.29496C12.5685 8.14149 11.972 9.33333 11.0262 9.33333C10.4723 9.33333 10.157 8.98081 10.157 8.39328V3.74341H8.59769V4.7506H8.44431C8.11199 4.01199 7.36214 3.56715 6.45892 3.56715C4.73768 3.56715 3.55326 4.96882 3.55326 7V7.01679C3.55326 9.14029 4.73768 10.5671 6.51004 10.5671C7.49848 10.5671 8.22276 10.1055 8.58065 9.25779H8.73402L8.74254 9.30815C8.91296 10.0971 9.67985 10.6091 10.7024 10.6091C12.7304 10.6091 14 8.91367 14 6.22782V6.21103C14 2.53477 11.2051 0 7.1406 0C2.90566 0 0 2.85372 0 6.99161V7.00839C0 11.247 2.86306 14 7.28545 14ZM6.84236 9.14868C5.87097 9.14868 5.2745 8.35971 5.2745 7.06715V7.05036C5.2745 5.74101 5.86245 4.96043 6.85088 4.96043C7.85636 4.96043 8.48691 5.76619 8.48691 7.05036V7.06715C8.48691 8.34293 7.84784 9.14868 6.84236 9.14868Z" fill="#C4C9CC"/>
</svg>
