<svg width="14" height="16" viewBox="0 0 14 16" fill="none" xmlns="http://www.w3.org/2000/svg">
<path d="M6 11.25H6.25L6.25 8.85001H6C5.58579 8.85001 5.25 8.51422 5.25 8.10001C5.25 7.68579 5.58579 7.35001 6 7.35001H7.75L7.75 11.25H8C8.41421 11.25 8.75 11.5858 8.75 12C8.75 12.4142 8.41421 12.75 8 12.75H6C5.58579 12.75 5.25 12.4142 5.25 12C5.25 11.5858 5.58579 11.25 6 11.25Z" fill="#C4C9CC"/>
<path d="M6 5.09998C6 5.65226 6.44772 6.09998 7 6.09998C7.55228 6.09998 8 5.65226 8 5.09998V4.99998C8 4.44769 7.55229 3.99998 7 3.99998C6.44772 3.99998 6 4.44769 6 4.99998V5.09998Z" fill="#C4C9CC"/>
<path fill-rule="evenodd" clip-rule="evenodd" d="M0.25 0.25H10.345L13.75 4.22256V15.75H0.25V0.25ZM12.25 4.77744L9.65505 1.75H1.75V14.25H12.25V4.77744Z" fill="#C4C9CC"/>
</svg>
