<svg width="16" height="16" viewBox="0 0 16 16" fill="none" xmlns="http://www.w3.org/2000/svg">
<path fill-rule="evenodd" clip-rule="evenodd" d="M2 3.5C1.72386 3.5 1.5 3.72386 1.5 4V12C1.5 12.0886 1.52355 12.1772 1.57046 12.2559C1.66063 12.4073 1.82381 12.5 2 12.5H11.4737C11.6572 12.5 11.826 12.3994 11.9134 12.238L14.4397 7.57137C14.5236 7.41643 14.5197 7.22878 14.4295 7.07742C14.3394 6.92606 14.1762 6.83333 14 6.83333H11.8333V5.33333C11.8333 5.05719 11.6095 4.83333 11.3333 4.83333H6.89355L5.87629 3.67075C5.78134 3.56224 5.64418 3.5 5.5 3.5H2ZM10.8333 6.83333V5.83333H6.66667C6.52249 5.83333 6.38532 5.77109 6.29038 5.66259L5.27312 4.5H2.5V10.0261L4.08661 7.0953C4.17399 6.93389 4.34278 6.83333 4.52632 6.83333H10.8333ZM2.83924 11.5L4.8242 7.83333H13.1608L11.1758 11.5H2.83924Z" fill="#C4C9CC"/>
</svg>
