<svg width="16" height="16" viewBox="0 0 16 16" fill="none" xmlns="http://www.w3.org/2000/svg">
<g clip-path="url(#clip0_6325_15910)">
<mask id="mask0_6325_15910" style="mask-type:alpha" maskUnits="userSpaceOnUse" x="0" y="0" width="24" height="24">
<rect width="24" height="24" fill="#D9D9D9"/>
</mask>
<g mask="url(#mask0_6325_15910)">
<path d="M7.98719 13.6667C6.5436 13.6667 5.28549 13.1915 4.21284 12.241C3.1402 11.2906 2.52268 10.0992 2.36029 8.66669H3.38077C3.54915 9.81797 4.06731 10.7725 4.93526 11.5302C5.80321 12.2878 6.82052 12.6667 7.98719 12.6667C9.28719 12.6667 10.39 12.2139 11.2955 11.3084C12.2011 10.4028 12.6539 9.30002 12.6539 8.00002C12.6539 6.70002 12.2011 5.59725 11.2955 4.69169C10.39 3.78614 9.28719 3.33336 7.98719 3.33336C7.25899 3.33336 6.57651 3.49511 5.93976 3.81861C5.30301 4.14211 4.75472 4.58719 4.29489 5.15386H6.03847V6.15384H2.65391V2.76926H3.65387V4.34876C4.1949 3.7103 4.84276 3.21479 5.59746 2.86222C6.35216 2.50966 7.14873 2.33337 7.98719 2.33337C8.77351 2.33337 9.51026 2.4821 10.1974 2.77954C10.8846 3.07697 11.4837 3.48124 11.9949 3.99234C12.506 4.50345 12.9102 5.1026 13.2077 5.78977C13.5051 6.47695 13.6538 7.2137 13.6538 8.00002C13.6538 8.78635 13.5051 9.5231 13.2077 10.2103C12.9102 10.8975 12.506 11.4966 11.9949 12.0077C11.4837 12.5188 10.8846 12.9231 10.1974 13.2205C9.51026 13.518 8.77351 13.6667 7.98719 13.6667ZM9.98847 10.6846L7.50642 8.20259V4.66669H8.50641V7.79746L10.691 9.98209L9.98847 10.6846Z" fill="#C4C9CC"/>
</g>
</g>
<defs>
<clipPath id="clip0_6325_15910">
<rect width="16" height="16" fill="white"/>
</clipPath>
</defs>
</svg>
