<svg width="17" height="15" viewBox="0 0 17 15" fill="none" xmlns="http://www.w3.org/2000/svg">
<path d="M13 5.25H4V3.75H13V5.25Z" fill="white"/>
<path d="M4 8.25H10V6.75H4V8.25Z" fill="white"/>
<path fill-rule="evenodd" clip-rule="evenodd" d="M15 0C16.1046 0 17 0.89543 17 2V9.85714C17 10.9617 16.1046 11.8571 15 11.8571H4.5L1.6292 14.1811C0.975382 14.7104 0 14.2451 0 13.4039V2C0 0.89543 0.89543 0 2 0H15ZM3.96896 10.3571L1.5 12.3558V2C1.5 1.72386 1.72386 1.5 2 1.5H15C15.2761 1.5 15.5 1.72386 15.5 2V9.85714C15.5 10.1333 15.2761 10.3571 15 10.3571H3.96896Z" fill="white"/>
</svg>
