<svg width="20" height="20" viewBox="0 0 20 20" fill="none" xmlns="http://www.w3.org/2000/svg">
<path fill-rule="evenodd" clip-rule="evenodd" d="M9.90007 6.7373C8.09784 6.7373 6.63684 8.1983 6.63684 10.0005C6.63684 11.8028 8.09784 13.2638 9.90007 13.2638C11.7023 13.2638 13.1633 11.8028 13.1633 10.0005C13.1633 8.1983 11.7023 6.7373 9.90007 6.7373ZM8.13684 10.0005C8.13684 9.02673 8.92627 8.2373 9.90007 8.2373C10.8739 8.2373 11.6633 9.02673 11.6633 10.0005C11.6633 10.9743 10.8739 11.7638 9.90007 11.7638C8.92627 11.7638 8.13684 10.9743 8.13684 10.0005Z" fill="#C4C9CC"/>
<path fill-rule="evenodd" clip-rule="evenodd" d="M12.5067 0.873047H7.29352L6.74141 3.254C6.35395 3.43632 5.98491 3.65386 5.64148 3.89531L3.29711 3.1828L0.689209 7.6923L2.48135 9.35807C2.46129 9.56078 2.44814 9.77154 2.44814 9.99002C2.44814 10.2097 2.46143 10.4215 2.48167 10.6252L0.69188 12.3118L3.29635 16.8289L5.64243 16.1159C5.9888 16.3575 6.35752 16.5706 6.74039 16.753L7.29352 19.1384H12.5067L13.0588 16.7575C13.4462 16.5751 13.8153 16.3576 14.1587 16.1161L16.5038 16.8289L19.1104 12.3081L17.3181 10.6422C17.3385 10.4354 17.352 10.2219 17.352 10.0005C17.352 9.78201 17.3389 9.57125 17.3188 9.36854L19.1104 7.70331L16.5038 3.18257L14.1578 3.8956C13.8114 3.65394 13.4427 3.44086 13.0598 3.2584L12.5067 0.873047ZM8.02901 4.34162L8.48549 2.37305H11.3147L11.7695 4.33441L12.124 4.48265C12.6419 4.69924 13.1276 4.98021 13.5533 5.31333L13.8604 5.55371L15.7997 4.96433L17.2143 7.41781L15.7325 8.79513L15.7858 9.18145C15.8256 9.46981 15.852 9.73534 15.852 10.0005C15.852 10.2657 15.8256 10.5314 15.7853 10.8334L15.7341 11.2178L17.2143 12.5936L15.7997 15.0471L13.8604 14.4577L13.5533 14.6981C13.1215 15.036 12.6381 15.323 12.1348 15.5244L11.7712 15.6698L11.3147 17.6384H8.48549L8.03068 15.677L7.67621 15.5288C7.15827 15.3122 6.67255 15.0312 6.2469 14.6981L5.93975 14.4577L4.0005 15.0471L2.5838 12.59L4.06725 11.1922L4.01441 10.8091C3.97463 10.5207 3.94814 10.2552 3.94814 9.99002C3.94814 9.72487 3.97463 9.45934 4.01441 9.17098L4.06769 8.78466L2.58647 7.40788L3.99974 4.96409L5.93975 5.55371L6.2469 5.31333C6.67866 4.97544 7.16206 4.6884 7.6654 4.48707L8.02901 4.34162Z" fill="#C4C9CC"/>
</svg>
