<svg width="16" height="16" viewBox="0 0 16 16" fill="none" xmlns="http://www.w3.org/2000/svg">
<g clip-path="url(#clip0_6325_20308)">
<mask id="mask0_6325_20308" style="mask-type:alpha" maskUnits="userSpaceOnUse" x="0" y="0" width="24" height="24">
<rect width="24" height="24" fill="#D9D9D9"/>
</mask>
<g mask="url(#mask0_6325_20308)">
<path d="M12.0011 14.5C11.492 14.5 11.0591 14.3217 10.7022 13.9653C10.3454 13.6088 10.167 13.1759 10.167 12.6667C10.167 12.5834 10.1736 12.4972 10.1869 12.4081C10.2001 12.3189 10.22 12.2367 10.2465 12.1615L5.31569 9.27433C5.13963 9.44955 4.9392 9.58651 4.71441 9.68523C4.48962 9.78395 4.25159 9.8333 4.00031 9.8333C3.49105 9.8333 3.05819 9.65513 2.70171 9.2988C2.34523 8.94247 2.16699 8.50978 2.16699 8.00073C2.16699 7.49169 2.34523 7.05875 2.70171 6.70192C3.05819 6.34508 3.49105 6.16667 4.00031 6.16667C4.25159 6.16667 4.48962 6.21602 4.71441 6.31473C4.9392 6.41346 5.13963 6.55042 5.31569 6.72563L10.2465 3.83845C10.22 3.76324 10.2001 3.68105 10.1869 3.59188C10.1736 3.50273 10.167 3.41654 10.167 3.33332C10.167 2.82406 10.3452 2.39119 10.7015 2.03472C11.0578 1.67824 11.4905 1.5 11.9996 1.5C12.5086 1.5 12.9415 1.67817 13.2984 2.0345C13.6552 2.39083 13.8336 2.82352 13.8336 3.33257C13.8336 3.84161 13.6554 4.27455 13.2989 4.63138C12.9424 4.98822 12.5096 5.16663 12.0003 5.16663C11.749 5.16663 11.511 5.11728 11.2862 5.01857C11.0614 4.91984 10.861 4.78288 10.6849 4.60767L5.75414 7.49485C5.78064 7.57006 5.80051 7.6521 5.81376 7.74097C5.827 7.82982 5.83363 7.91572 5.83363 7.99865C5.83363 8.0816 5.827 8.16794 5.81376 8.25768C5.80051 8.34743 5.78064 8.42991 5.75414 8.50512L10.6849 11.3923C10.861 11.2171 11.0614 11.0801 11.2862 10.9814C11.511 10.8827 11.749 10.8333 12.0003 10.8333C12.5096 10.8333 12.9424 11.0115 13.2989 11.3678C13.6554 11.7242 13.8336 12.1569 13.8336 12.6659C13.8336 13.1749 13.6555 13.6079 13.2991 13.9647C12.9428 14.3216 12.5101 14.5 12.0011 14.5ZM12.0003 4.16665C12.2319 4.16665 12.4287 4.08567 12.5907 3.9237C12.7527 3.76172 12.8337 3.56492 12.8337 3.3333C12.8337 3.10168 12.7527 2.90488 12.5907 2.7429C12.4287 2.58095 12.2319 2.49997 12.0003 2.49997C11.7687 2.49997 11.5719 2.58095 11.4099 2.74292C11.2479 2.90489 11.167 3.10169 11.167 3.33332C11.167 3.56494 11.2479 3.76174 11.4099 3.92372C11.5719 4.08568 11.7687 4.16665 12.0003 4.16665ZM4.00031 8.83332C4.23193 8.83332 4.42873 8.75233 4.59071 8.59037C4.75268 8.42839 4.83366 8.23159 4.83366 7.99997C4.83366 7.76834 4.75268 7.57155 4.59071 7.40957C4.42873 7.24761 4.23193 7.16663 4.00031 7.16663C3.76869 7.16663 3.57189 7.24762 3.40991 7.40958C3.24794 7.57156 3.16696 7.76836 3.16696 7.99998C3.16696 8.23161 3.24794 8.42841 3.40991 8.59038C3.57189 8.75235 3.76869 8.83332 4.00031 8.83332ZM12.0003 13.5C12.2319 13.5 12.4287 13.419 12.5907 13.257C12.7527 13.0951 12.8337 12.8983 12.8337 12.6666C12.8337 12.435 12.7527 12.2382 12.5907 12.0762C12.4287 11.9143 12.2319 11.8333 12.0003 11.8333C11.7687 11.8333 11.5719 11.9143 11.4099 12.0763C11.2479 12.2382 11.167 12.435 11.167 12.6667C11.167 12.8983 11.2479 13.0951 11.4099 13.2571C11.5719 13.419 11.7687 13.5 12.0003 13.5Z" fill="#C4C9CC"/>
</g>
</g>
<defs>
<clipPath id="clip0_6325_20308">
<rect width="16" height="16" fill="white"/>
</clipPath>
</defs>
</svg>
