<svg width="16" height="16" viewBox="0 0 16 16" fill="none" xmlns="http://www.w3.org/2000/svg">
<path fill-rule="evenodd" clip-rule="evenodd" d="M2.74343 4.83325H13.2572L12.0125 12.3013C11.8652 13.1853 11.1004 13.8333 10.2042 13.8333H5.79649C4.90029 13.8333 4.13544 13.1853 3.98811 12.3013L2.74343 4.83325ZM3.92389 5.83325L4.9745 12.1369C5.04147 12.5387 5.38913 12.8333 5.79649 12.8333H10.2042C10.6115 12.8333 10.9592 12.5387 11.0262 12.1369L12.0768 5.83325H3.92389Z" fill="#C4C9CC"/>
<path fill-rule="evenodd" clip-rule="evenodd" d="M2.16699 4.66659C2.16699 3.65406 2.9878 2.83325 4.00033 2.83325H12.0003C13.0128 2.83325 13.8337 3.65406 13.8337 4.66659V5.83325H2.16699V4.66659ZM4.00033 3.83325C3.54009 3.83325 3.16699 4.20635 3.16699 4.66659V4.83325H12.8337V4.66659C12.8337 4.20635 12.4606 3.83325 12.0003 3.83325H4.00033Z" fill="#C4C9CC"/>
<path fill-rule="evenodd" clip-rule="evenodd" d="M6.50338 10.7218L6.17005 7.7218L7.16393 7.61137L7.49727 10.6114L6.50338 10.7218Z" fill="#C4C9CC"/>
<path fill-rule="evenodd" clip-rule="evenodd" d="M9.66393 10.7218L9.99727 7.7218L9.00338 7.61137L8.67005 10.6114L9.66393 10.7218Z" fill="#C4C9CC"/>
</svg>
