<svg xmlns="http://www.w3.org/2000/svg" width="16" height="16" viewBox="0 0 16 16" fill="none">
  <mask id="mask0_5954_20145" style="mask-type:alpha" maskUnits="userSpaceOnUse" x="0" y="0" width="24" height="24">
    <rect width="24" height="24" fill="#D9D9D9"/>
  </mask>
  <g mask="url(#mask0_5954_20145)">
    <path d="M3.00062 9.6666C2.53482 9.6666 2.1406 9.50528 1.81795 9.18263C1.49531 8.85998 1.33398 8.46575 1.33398 7.99995C1.33398 7.53415 1.49531 7.13992 1.81795 6.81727C2.1406 6.49462 2.53482 6.3333 3.00062 6.3333V4.66662C3.00062 4.39397 3.09912 4.15915 3.29613 3.96215C3.49313 3.76514 3.72796 3.66663 4.0006 3.66663H6.33395C6.33395 3.20083 6.49527 2.80661 6.81792 2.48397C7.14057 2.16132 7.5348 2 8.0006 2C8.4664 2 8.86063 2.16132 9.18328 2.48397C9.50593 2.80661 9.66725 3.20083 9.66725 3.66663H12.0006C12.2732 3.66663 12.5081 3.76514 12.7051 3.96215C12.9021 4.15915 13.0006 4.39397 13.0006 4.66662V6.3333C13.4664 6.3333 13.8606 6.49462 14.1833 6.81727C14.5059 7.13992 14.6672 7.53415 14.6672 7.99995C14.6672 8.46575 14.5059 8.85998 14.1833 9.18263C13.8606 9.50528 13.4664 9.6666 13.0006 9.6666V12.6666C13.0006 12.9393 12.9021 13.1741 12.7051 13.3711C12.5081 13.5681 12.2732 13.6666 12.0006 13.6666H4.0006C3.72796 13.6666 3.49313 13.5681 3.29613 13.3711C3.09912 13.1741 3.00062 12.9393 3.00062 12.6666V9.6666ZM5.99985 8.49993C6.23112 8.49993 6.42795 8.41899 6.59033 8.2571C6.75272 8.09521 6.83392 7.89863 6.83392 7.66737C6.83392 7.4361 6.75297 7.23927 6.59108 7.07688C6.4292 6.91449 6.23262 6.8333 6.00135 6.8333C5.77008 6.8333 5.57326 6.91424 5.41087 7.07613C5.24848 7.23802 5.16728 7.4346 5.16728 7.66587C5.16728 7.89713 5.24823 8.09396 5.41012 8.25635C5.57201 8.41874 5.76858 8.49993 5.99985 8.49993ZM9.99985 8.49993C10.2311 8.49993 10.4279 8.41899 10.5903 8.2571C10.7527 8.09521 10.8339 7.89863 10.8339 7.66737C10.8339 7.4361 10.753 7.23927 10.5911 7.07688C10.4292 6.91449 10.2326 6.8333 10.0014 6.8333C9.77008 6.8333 9.57326 6.91424 9.41087 7.07613C9.24848 7.23802 9.16728 7.4346 9.16728 7.66587C9.16728 7.89713 9.24823 8.09396 9.41012 8.25635C9.57201 8.41874 9.76858 8.49993 9.99985 8.49993ZM5.50062 11.1666H10.5006V10.1666H5.50062V11.1666ZM4.0006 12.6666H12.0006V4.66662H4.0006V12.6666Z" fill="#2BAAFF"/>
  </g>
</svg>