<?xml version="1.0" encoding="utf-8"?>
<!-- Generator: Adobe Illustrator 22.1.0, SVG Export Plug-In . SVG Version: 6.00 Build 0)  -->
<svg version="1.1" id="Layer_1" xmlns="http://www.w3.org/2000/svg" xmlns:xlink="http://www.w3.org/1999/xlink" x="0px" y="0px"
	 viewBox="0 0 64 64" style="enable-background:new 0 0 64 64;" xml:space="preserve">
<style type="text/css">
	.st0{fill:#FFFFFF;}
</style>
<g>
	<path class="st0" d="M48.3,14.2H15.6c-2.8,0-5,2.3-5,5v28.7c0,2.1,2.5,3.3,4.1,2l7.2-5.8h26.4c2.8,0,5-2.3,5-5V19.2
		C53.3,16.5,51.1,14.2,48.3,14.2z M49.5,39c0,0.7-0.6,1.3-1.3,1.3H20.5l-6.2,5V19.2c0-0.7,0.6-1.3,1.3-1.3h32.7
		c0.7,0,1.3,0.6,1.3,1.3V39H49.5z"/>
	<rect x="20.6" y="23.6" class="st0" width="22.6" height="3.8"/>
	<rect x="20.6" y="31.2" class="st0" width="15.1" height="3.8"/>
</g>
</svg>
