<?xml version="1.0" encoding="utf-8"?>
<!-- Generator: Adobe Illustrator 22.1.0, SVG Export Plug-In . SVG Version: 6.00 Build 0)  -->
<svg version="1.1" id="Layer_1" xmlns="http://www.w3.org/2000/svg" xmlns:xlink="http://www.w3.org/1999/xlink" x="0px" y="0px"
	 viewBox="0 0 64 64" style="enable-background:new 0 0 64 64;" xml:space="preserve">
<style type="text/css">
	.st0{fill:#FFFFFF;}
</style>
<path class="st0" d="M29.8,40.8h0.7v-6.4h-0.7c-1.1,0-2-0.9-2-2c0-1.1,0.9-2,2-2h4.7v10.4h0.7c1.1,0,2,0.9,2,2s-0.9,2-2,2h-5.3
	c-1.1,0-2-0.9-2-2C27.8,41.7,28.7,40.8,29.8,40.8z"/>
<path class="st0" d="M29.8,24.4c0,1.5,1.2,2.7,2.7,2.7s2.7-1.2,2.7-2.7v-0.3c0-1.5-1.2-2.7-2.7-2.7s-2.7,1.2-2.7,2.7V24.4z"/>
<path class="st0" d="M14.5,11.5h26.8l9.1,10.6v30.6H14.5V11.5z M46.4,23.6l-6.9-8h-21v33.2h27.9V23.6z"/>
</svg>
