<svg xmlns="http://www.w3.org/2000/svg" width="20" height="20" viewBox="0 0 20 20" fill="none">
  <mask id="mask0_5827_25924" style="mask-type:alpha" maskUnits="userSpaceOnUse" x="0" y="0" width="20" height="20">
    <rect width="20" height="20" fill="#D9D9D9"/>
  </mask>
  <g mask="url(#mask0_5827_25924)">
    <path d="M3.5904 16.25C3.16946 16.25 2.81315 16.1041 2.52148 15.8125C2.22982 15.5208 2.08398 15.1645 2.08398 14.7435V5.25642C2.08398 4.83547 2.22982 4.47917 2.52148 4.1875C2.81315 3.89583 3.16946 3.75 3.5904 3.75H8.16567L9.83234 5.41667H16.4109C16.8318 5.41667 17.1881 5.5625 17.4798 5.85417C17.7714 6.14583 17.9173 6.50214 17.9173 6.92308V14.7435C17.9173 15.1645 17.7714 15.5208 17.4798 15.8125C17.1881 16.1041 16.8318 16.25 16.4109 16.25H3.5904ZM3.5904 15H16.4109C16.4857 15 16.5471 14.9759 16.5952 14.9279C16.6433 14.8798 16.6673 14.8183 16.6673 14.7435V6.92308C16.6673 6.84829 16.6433 6.78685 16.5952 6.73877C16.5471 6.69069 16.4857 6.66665 16.4109 6.66665H9.32115L7.65449 4.99998H3.5904C3.51561 4.99998 3.45417 5.02402 3.40609 5.0721C3.35801 5.12019 3.33396 5.18163 3.33396 5.25642V14.7435C3.33396 14.8183 3.35801 14.8798 3.40609 14.9279C3.45417 14.9759 3.51561 15 3.5904 15Z" fill="#E5A207"/>
    <path d="M6.07357 11.4271C6.23329 11.5868 6.43121 11.6667 6.66732 11.6667C6.90343 11.6667 7.10135 11.5868 7.26107 11.4271C7.42079 11.2674 7.50065 11.0694 7.50065 10.8333C7.50065 10.5972 7.42079 10.3993 7.26107 10.2396C7.10135 10.0799 6.90343 10 6.66732 10C6.43121 10 6.23329 10.0799 6.07357 10.2396C5.91385 10.3993 5.83398 10.5972 5.83398 10.8333C5.83398 11.0694 5.91385 11.2674 6.07357 11.4271Z" fill="#E5A207"/>
    <path d="M9.4069 11.4271C9.56662 11.5868 9.76454 11.6667 10.0007 11.6667C10.2368 11.6667 10.4347 11.5868 10.5944 11.4271C10.7541 11.2674 10.834 11.0694 10.834 10.8333C10.834 10.5972 10.7541 10.3993 10.5944 10.2396C10.4347 10.0799 10.2368 10 10.0007 10C9.76454 10 9.56662 10.0799 9.4069 10.2396C9.24718 10.3993 9.16732 10.5972 9.16732 10.8333C9.16732 11.0694 9.24718 11.2674 9.4069 11.4271Z" fill="#E5A207"/>
    <path d="M12.7402 11.4271C12.9 11.5868 13.0979 11.6667 13.334 11.6667C13.5701 11.6667 13.768 11.5868 13.9277 11.4271C14.0875 11.2674 14.1673 11.0694 14.1673 10.8333C14.1673 10.5972 14.0875 10.3993 13.9277 10.2396C13.768 10.0799 13.5701 10 13.334 10C13.0979 10 12.9 10.0799 12.7402 10.2396C12.5805 10.3993 12.5007 10.5972 12.5007 10.8333C12.5007 11.0694 12.5805 11.2674 12.7402 11.4271Z" fill="#E5A207"/>
  </g>
</svg>