<svg xmlns="http://www.w3.org/2000/svg" width="20" height="20" viewBox="0 0 20 20" fill="none">
  <mask id="mask0_5827_25939" style="mask-type:alpha" maskUnits="userSpaceOnUse" x="0" y="0" width="20" height="20">
    <rect width="20" height="20" fill="#D9D9D9"/>
  </mask>
  <g mask="url(#mask0_5827_25939)">
    <path d="M3.5904 16.25C3.16946 16.25 2.81315 16.1041 2.52148 15.8125C2.22982 15.5208 2.08398 15.1645 2.08398 14.7435V5.25642C2.08398 4.83547 2.22982 4.47917 2.52148 4.1875C2.81315 3.89583 3.16946 3.75 3.5904 3.75H8.16567L9.83234 5.41667H16.4109C16.8318 5.41667 17.1881 5.5625 17.4798 5.85417C17.7714 6.14583 17.9173 6.50214 17.9173 6.92308V14.7435C17.9173 15.1645 17.7714 15.5208 17.4798 15.8125C17.1881 16.1041 16.8318 16.25 16.4109 16.25H3.5904ZM3.5904 15H16.4109C16.4857 15 16.5471 14.9759 16.5952 14.9279C16.6433 14.8798 16.6673 14.8183 16.6673 14.7435V6.92308C16.6673 6.84829 16.6433 6.78685 16.5952 6.73877C16.5471 6.69069 16.4857 6.66665 16.4109 6.66665H9.32115L7.65449 4.99998H3.5904C3.51561 4.99998 3.45417 5.02402 3.40609 5.0721C3.35801 5.12019 3.33396 5.18163 3.33396 5.25642V14.7435C3.33396 14.8183 3.35801 14.8798 3.40609 14.9279C3.45417 14.9759 3.51561 15 3.5904 15Z" fill="#69BF13"/>
    <path d="M13.3575 8.90453L8.9376 13.3244L6.26774 10.6545L7.15874 9.76353L8.92478 11.5295L12.4536 8.00071L13.3575 8.90453Z" fill="#69BF13"/>
  </g>
</svg>