<svg xmlns="http://www.w3.org/2000/svg" width="20" height="20" viewBox="0 0 20 20" fill="none">
  <mask id="mask0_4721_114034" style="mask-type:alpha" maskUnits="userSpaceOnUse" x="0" y="0" width="20" height="20">
    <rect y="0.5" width="16" height="16" fill="#D9D9D9"/>
  </mask>
  <g mask="url(#mask0_4721_114034)">
    <path d="M2.87188 13.5C2.53513 13.5 2.25008 13.3833 2.01675 13.15C1.78341 12.9166 1.66675 12.6316 1.66675 12.2948V4.70513C1.66675 4.36838 1.78341 4.08333 2.01675 3.85C2.25008 3.61667 2.53513 3.5 2.87188 3.5H6.0334C6.19408 3.5 6.34856 3.5312 6.49685 3.5936C6.64514 3.65599 6.77398 3.74188 6.88338 3.85128L7.86543 4.83333H13.1282C13.465 4.83333 13.75 4.95 13.9834 5.18333C14.2167 5.41667 14.3334 5.70171 14.3334 6.03847V12.2948C14.3334 12.6316 14.2167 12.9166 13.9834 13.15C13.75 13.3833 13.465 13.5 13.1282 13.5H2.87188Z" fill="url(#paint0_linear_4721_114034)"/>
    <path d="M9.54731 12.1212L8.00116 10.9519L6.45501 12.1212C6.36142 12.1917 6.27361 12.1968 6.19156 12.1366C6.10951 12.0763 6.08515 11.9943 6.11848 11.8904L6.68578 9.95764L5.08003 8.66338C5.00309 8.59286 4.98129 8.50824 5.01463 8.40952C5.04796 8.3108 5.11655 8.26144 5.2204 8.26144H7.17808L7.78001 6.39406C7.81334 6.29021 7.88706 6.23828 8.00116 6.23828C8.11526 6.23828 8.18898 6.29021 8.22231 6.39406L8.82424 8.26144H10.7819C10.8858 8.26144 10.9544 8.3108 10.9877 8.40952C11.021 8.50824 10.9992 8.59286 10.9223 8.66338L9.31654 9.95764L9.88384 11.8904C9.91717 11.9943 9.89281 12.0763 9.81076 12.1366C9.72871 12.1968 9.6409 12.1917 9.54731 12.1212Z" fill="white"/>
  </g>
  <defs>
    <linearGradient id="paint0_linear_4721_114034" x1="1.66675" y1="8.49998" x2="14.3334" y2="8.49998" gradientUnits="userSpaceOnUse">
      <stop stop-color="#4776E6"/>
      <stop offset="1" stop-color="#8E54E9"/>
    </linearGradient>
  </defs>
</svg>