<?xml version="1.0" encoding="utf-8"?>
<!-- Generator: Adobe Illustrator 22.1.0, SVG Export Plug-In . SVG Version: 6.00 Build 0)  -->
<svg version="1.1" id="Layer_1" xmlns="http://www.w3.org/2000/svg" xmlns:xlink="http://www.w3.org/1999/xlink" x="0px" y="0px"
	 viewBox="0 0 64 64" style="enable-background:new 0 0 64 64;" xml:space="preserve">
<style type="text/css">
	.st0{fill:#FFFFFF;}
</style>
<path class="st0" d="M33.2,50c2.5,0,4.8-0.3,6.7-0.9V46c-1.3,0.5-3.9,0.9-6.4,0.9c-9.3,0-15.2-5.7-15.2-14.6l0,0
	c0-8.7,6-14.9,14.4-14.9s14.1,5.2,14.1,12.9l0,0c0,4.7-1.5,7.8-3.9,7.8c-1.4,0-2.2-0.9-2.2-2.4V23.8h-4v2.6h-0.4
	c-0.9-1.9-2.8-3-5.1-3c-4.4,0-7.4,3.6-7.4,8.8l0,0c0,5.4,3,9.1,7.6,9.1c2.5,0,4.4-1.2,5.3-3.4h0.4V38c0.4,2,2.4,3.3,5,3.3
	c5.2,0,8.4-4.3,8.4-11.2l0,0c0-9.4-7.2-15.9-17.6-15.9c-10.8,0-18.3,7.3-18.3,17.9l0,0C14.5,43,21.8,50,33.2,50z M32,37.6
	c-2.5,0-4-2-4-5.3l0,0c0-3.4,1.5-5.3,4-5.3c2.6,0,4.2,2.1,4.2,5.3l0,0C36.2,35.6,34.6,37.6,32,37.6z"/>
</svg>
