<?xml version="1.0" encoding="utf-8"?>
<!-- Generator: Adobe Illustrator 22.1.0, SVG Export Plug-In . SVG Version: 6.00 Build 0)  -->
<svg version="1.1" id="Layer_1" xmlns="http://www.w3.org/2000/svg" xmlns:xlink="http://www.w3.org/1999/xlink" x="0px" y="0px"
	 viewBox="0 0 64 64" style="enable-background:new 0 0 64 64;" xml:space="preserve">
<style type="text/css">
	.st0{fill:#FFFFFF;}
</style>
<path class="st0" d="M32.3,24.8c-4,0-7.3,3.3-7.3,7.3s3.3,7.3,7.3,7.3s7.3-3.3,7.3-7.3C39.7,28.1,36.4,24.8,32.3,24.8z M28.4,32.1
	c0-2.2,1.8-4,4-4s4,1.8,4,4s-1.8,4-4,4C30.1,36.1,28.4,34.3,28.4,32.1z"/>
<path class="st0" d="M38.2,11.6H26.5L25.2,17c-0.9,0.4-1.7,0.9-2.5,1.4l-5.3-1.6l-5.9,10.1l4,3.7c0,0.5-0.1,0.9-0.1,1.4s0,1,0.1,1.4
	l-4,3.8l5.8,10.1l5.3-1.6c0.8,0.5,1.6,1,2.5,1.4l1.2,5.4H38l1.2-5.3c0.9-0.4,1.7-0.9,2.5-1.4l5.3,1.6l6-10.1l-4-3.7
	c0-0.5,0.1-0.9,0.1-1.4s0-1-0.1-1.4l4-3.7L47.2,17l-5.3,1.6c-0.8-0.5-1.6-1-2.5-1.4L38.2,11.6z M28.1,19.4l1-4.4h6.3l1,4.4l0.8,0.3
	c1.2,0.5,2.3,1.1,3.2,1.9l0.7,0.5l4.4-1.3l3.2,5.5l-3.3,3.1l0.1,0.9c0.1,0.6,0.1,1.2,0.1,1.8s-0.1,1.2-0.1,1.9l-0.1,0.9l3.3,3.1
	l-3.2,5.5l-4.4-1.3l-0.7,0.5c-1,0.8-2.1,1.4-3.2,1.9l-0.8,0.3l-1,4.4h-6.3l-1-4.4l-0.8-0.3c-1.2-0.5-2.3-1.1-3.2-1.9l-0.7-0.5
	L19,43.5L15.8,38l3.3-3.1L19,34c0-0.7,0-1.3,0-1.9c0-0.6,0.1-1.2,0.1-1.8l0.1-0.9l-3.3-3.1l3.2-5.5l4.4,1.3l0.7-0.5
	c1-0.8,2.1-1.4,3.2-1.9L28.1,19.4z"/>
</svg>
