<svg width="16" height="16" viewBox="0 0 16 16" fill="none" xmlns="http://www.w3.org/2000/svg">
<mask id="mask0_1973_38237" style="mask-type:alpha" maskUnits="userSpaceOnUse" x="0" y="0" width="16" height="16">
<rect width="16" height="16" fill="#D9D9D9"/>
</mask>
<g mask="url(#mask0_1973_38237)">
<path d="M7.23341 7.50013H8.76674V2.73346C8.76674 2.52235 8.69163 2.34169 8.54141 2.19146C8.39163 2.04169 8.21119 1.9668 8.00008 1.9668C7.78897 1.9668 7.60852 2.04169 7.45874 2.19146C7.30852 2.34169 7.23341 2.52235 7.23341 2.73346V7.50013ZM3.30008 10.0335H12.7001V8.70013C12.7001 8.64458 12.6805 8.59724 12.6414 8.55813C12.6027 8.51946 12.5556 8.50013 12.5001 8.50013H3.50008C3.44452 8.50013 3.39719 8.51946 3.35808 8.55813C3.31941 8.59724 3.30008 8.64458 3.30008 8.70013V10.0335ZM2.55008 14.0335H4.23341V12.5335C4.23341 12.4001 4.28052 12.2835 4.37474 12.1835C4.46941 12.0835 4.58897 12.0335 4.73341 12.0335C4.87785 12.0335 4.99741 12.0835 5.09208 12.1835C5.1863 12.2835 5.23341 12.4001 5.23341 12.5335V14.0335H7.50008V12.5335C7.50008 12.4001 7.54741 12.2835 7.64208 12.1835C7.7363 12.0835 7.85563 12.0335 8.00008 12.0335C8.14452 12.0335 8.26408 12.0835 8.35874 12.1835C8.45297 12.2835 8.50008 12.4001 8.50008 12.5335V14.0335H10.7667V12.5335C10.7667 12.4001 10.8141 12.2835 10.9087 12.1835C11.003 12.0835 11.1223 12.0335 11.2667 12.0335C11.4112 12.0335 11.5307 12.0835 11.6254 12.1835C11.7196 12.2835 11.7667 12.4001 11.7667 12.5335V14.0335H13.4501C13.5167 14.0335 13.5723 14.0086 13.6167 13.9588C13.6612 13.9086 13.6723 13.8501 13.6501 13.7835L12.9167 11.0335H3.08341L2.35008 13.7835C2.32785 13.8501 2.33897 13.9086 2.38341 13.9588C2.42785 14.0086 2.48341 14.0335 2.55008 14.0335ZM13.5001 15.0335H2.50008C2.1223 15.0335 1.81408 14.8835 1.57541 14.5835C1.3363 14.2835 1.26674 13.9501 1.36674 13.5835L2.30008 10.1501V8.6668C2.30008 8.34457 2.41408 8.06946 2.64208 7.84146C2.86963 7.61391 3.14452 7.50013 3.46674 7.50013H6.23341V2.73346C6.23341 2.24457 6.40563 1.82791 6.75008 1.48346C7.09452 1.13902 7.51119 0.966797 8.00008 0.966797C8.48897 0.966797 8.90563 1.13902 9.25008 1.48346C9.59452 1.82791 9.76674 2.24457 9.76674 2.73346V7.50013H12.5334C12.8556 7.50013 13.1307 7.61391 13.3587 7.84146C13.5863 8.06946 13.7001 8.34457 13.7001 8.6668V10.1501L14.6334 13.5835C14.7556 13.9501 14.6974 14.2835 14.4587 14.5835C14.2196 14.8835 13.9001 15.0335 13.5001 15.0335Z" fill="#C4C9CC"/>
</g>
</svg>
