<svg width="24" height="24" viewBox="0 0 24 24" fill="none" xmlns="http://www.w3.org/2000/svg">
<mask id="mask0_5573_101995" style="mask-type:alpha" maskUnits="userSpaceOnUse" x="0" y="0" width="24" height="24">
<rect width="24" height="24" fill="#D9D9D9"/>
</mask>
<g mask="url(#mask0_5573_101995)">
<path d="M12 20.4997C11.0064 20.4997 10.0888 20.2555 9.24716 19.767C8.40551 19.2786 7.73725 18.6062 7.24238 17.7497H4.44238V16.2498H6.67701C6.57571 15.8395 6.52089 15.4245 6.51256 15.0046C6.50422 14.5847 6.50006 14.1664 6.50006 13.7497H4.44238V12.2498H6.50006C6.50006 11.8267 6.50102 11.4052 6.50296 10.9853C6.50487 10.5655 6.56289 10.1536 6.67701 9.74974H4.44238V8.24979H7.24238C7.48212 7.84081 7.76545 7.46805 8.09238 7.13152C8.4193 6.79498 8.79366 6.51133 9.21546 6.28054L7.51931 4.55362L8.55388 3.51904L10.6847 5.64979C11.1129 5.51903 11.5462 5.45364 11.9847 5.45364C12.4231 5.45364 12.8564 5.51903 13.2846 5.64979L15.4654 3.51904L16.5 4.55362L14.7731 6.28054C15.1949 6.51133 15.5711 6.79242 15.9019 7.12382C16.2327 7.45523 16.518 7.83056 16.7577 8.24979H19.5577V9.74974H17.3231C17.4372 10.1536 17.4952 10.5655 17.4971 10.9853C17.499 11.4052 17.5 11.8267 17.5 12.2498H19.5577V13.7497H17.5C17.5 14.1664 17.4958 14.5847 17.4875 15.0046C17.4792 15.4245 17.4244 15.8395 17.3231 16.2498H19.5577V17.7497H16.7577C16.2628 18.6062 15.5946 19.2786 14.7529 19.767C13.9112 20.2555 12.9936 20.4997 12 20.4997ZM12 18.9998C13.1 18.9998 14.0417 18.6081 14.825 17.8248C15.6084 17.0414 16 16.0998 16 14.9998V10.9998C16 9.89977 15.6084 8.9581 14.825 8.17477C14.0417 7.39143 13.1 6.99977 12 6.99977C10.9 6.99977 9.95837 7.39143 9.17503 8.17477C8.3917 8.9581 8.00003 9.89977 8.00003 10.9998V14.9998C8.00003 16.0998 8.3917 17.0414 9.17503 17.8248C9.95837 18.6081 10.9 18.9998 12 18.9998ZM10.1539 15.7497H13.8462V14.2498H10.1539V15.7497ZM10.1539 11.7497H13.8462V10.2498H10.1539V11.7497Z" fill="#C4C9CC"/>
</g>
</svg>
