<svg width="16" height="16" viewBox="0 0 16 16" fill="none" xmlns="http://www.w3.org/2000/svg">
<path fill-rule="evenodd" clip-rule="evenodd" d="M2.74306 4.8335H13.2569L12.0122 12.3016C11.8648 13.1856 11.1 13.8335 10.2038 13.8335H5.79613C4.89992 13.8335 4.13507 13.1856 3.98774 12.3016L2.74306 4.8335ZM3.92352 5.8335L4.97413 12.1372C5.0411 12.539 5.38876 12.8335 5.79613 12.8335H10.2038C10.6112 12.8335 10.9588 12.539 11.0258 12.1372L12.0764 5.8335H3.92352Z" fill="#7A8084"/>
<path fill-rule="evenodd" clip-rule="evenodd" d="M2.16663 4.66683C2.16663 3.65431 2.98744 2.8335 3.99996 2.8335H12C13.0125 2.8335 13.8333 3.65431 13.8333 4.66683V5.8335H2.16663V4.66683ZM3.99996 3.8335C3.53972 3.8335 3.16663 4.20659 3.16663 4.66683V4.8335H12.8333V4.66683C12.8333 4.20659 12.4602 3.8335 12 3.8335H3.99996Z" fill="#7A8084"/>
<path fill-rule="evenodd" clip-rule="evenodd" d="M6.50302 10.722L6.16968 7.72205L7.16357 7.61161L7.4969 10.6116L6.50302 10.722Z" fill="#7A8084"/>
<path fill-rule="evenodd" clip-rule="evenodd" d="M9.66357 10.722L9.9969 7.72205L9.00302 7.61161L8.66968 10.6116L9.66357 10.722Z" fill="#7A8084"/>
</svg>
