<svg width="24" height="24" viewBox="0 0 24 24" fill="none" xmlns="http://www.w3.org/2000/svg">
<mask id="mask0_5573_101973" style="mask-type:alpha" maskUnits="userSpaceOnUse" x="0" y="0" width="24" height="24">
<rect width="24" height="24" fill="#D9D9D9"/>
</mask>
<g mask="url(#mask0_5573_101973)">
<path d="M12.5 21.125L12.35 18.5H11.5C9.26667 18.5 7.375 17.725 5.825 16.175C4.275 14.625 3.5 12.7333 3.5 10.5C3.5 8.26667 4.275 6.375 5.825 4.825C7.375 3.275 9.26667 2.5 11.5 2.5C12.6167 2.5 13.6583 2.70833 14.625 3.125C15.5917 3.54167 16.4377 4.11267 17.163 4.838C17.8877 5.56267 18.4583 6.40833 18.875 7.375C19.2917 8.34167 19.5 9.38333 19.5 10.5C19.5 11.6333 19.325 12.7207 18.975 13.762C18.625 14.804 18.1373 15.7833 17.512 16.7C16.8873 17.6167 16.15 18.45 15.3 19.2C14.45 19.95 13.5167 20.5917 12.5 21.125ZM14 18.35C15.1833 17.35 16.1457 16.1793 16.887 14.838C17.629 13.496 18 12.05 18 10.5C18 8.68333 17.371 7.14567 16.113 5.887C14.8543 4.629 13.3167 4 11.5 4C9.68333 4 8.146 4.629 6.888 5.887C5.62933 7.14567 5 8.68333 5 10.5C5 12.3167 5.62933 13.8543 6.888 15.113C8.146 16.371 9.68333 17 11.5 17H14V18.35ZM11.5 15.775C11.75 15.775 11.9583 15.6873 12.125 15.512C12.2917 15.3373 12.375 15.1333 12.375 14.9C12.375 14.65 12.2917 14.4373 12.125 14.262C11.9583 14.0873 11.75 14 11.5 14C11.25 14 11.0417 14.0873 10.875 14.262C10.7083 14.4373 10.625 14.65 10.625 14.9C10.625 15.1333 10.7083 15.3373 10.875 15.512C11.0417 15.6873 11.25 15.775 11.5 15.775ZM10.925 12.725H12.125C12.125 12.275 12.1833 11.9373 12.3 11.712C12.4167 11.4873 12.7333 11.1167 13.25 10.6C13.55 10.3167 13.7917 10.0127 13.975 9.688C14.1583 9.36267 14.25 9 14.25 8.6C14.25 7.81667 13.9793 7.21667 13.438 6.8C12.896 6.38333 12.2583 6.175 11.525 6.175C10.8417 6.175 10.2667 6.36267 9.8 6.738C9.33333 7.11267 9 7.55833 8.8 8.075L9.925 8.525C10.025 8.225 10.2 7.946 10.45 7.688C10.7 7.42933 11.0583 7.3 11.525 7.3C12.025 7.3 12.4 7.44167 12.65 7.725C12.9 8.00833 13.025 8.31667 13.025 8.65C13.025 8.95 12.9417 9.21267 12.775 9.438C12.6083 9.66267 12.3917 9.90833 12.125 10.175C11.5917 10.625 11.2583 11.0083 11.125 11.325C10.9917 11.6417 10.925 12.1083 10.925 12.725Z" fill="#C4C9CC"/>
</g>
</svg>
