<svg width="24" height="24" viewBox="0 0 24 24" fill="none" xmlns="http://www.w3.org/2000/svg">
<mask id="mask0_5573_102027" style="mask-type:alpha" maskUnits="userSpaceOnUse" x="0" y="0" width="24" height="24">
<rect width="24" height="24" fill="#D9D9D9"/>
</mask>
<g mask="url(#mask0_5573_102027)">
<path d="M2.5752 18.6248V17.1248H12.2752V18.6248H2.5752ZM2.5752 13.7498V12.2498H7.2752V13.7498H2.5752ZM2.5752 8.8748V7.3748H7.2752V8.8748H2.5752ZM20.3752 18.6498L16.5502 14.8248C16.1669 15.1081 15.7542 15.3205 15.3122 15.4618C14.8709 15.6038 14.4169 15.6748 13.9502 15.6748C12.7002 15.6748 11.6379 15.2371 10.7632 14.3618C9.88786 13.4871 9.4502 12.4248 9.4502 11.1748C9.4502 9.9248 9.88786 8.86214 10.7632 7.9868C11.6379 7.11214 12.7002 6.6748 13.9502 6.6748C15.2002 6.6748 16.2625 7.11214 17.1372 7.9868C18.0125 8.86214 18.4502 9.9248 18.4502 11.1748C18.4502 11.6415 18.3752 12.0955 18.2252 12.5368C18.0752 12.9788 17.8669 13.3915 17.6002 13.7748L21.4252 17.5998L20.3752 18.6498ZM13.9502 14.1748C14.7835 14.1748 15.4919 13.8831 16.0752 13.2998C16.6585 12.7165 16.9502 12.0081 16.9502 11.1748C16.9502 10.3415 16.6585 9.63314 16.0752 9.0498C15.4919 8.46647 14.7835 8.1748 13.9502 8.1748C13.1169 8.1748 12.4085 8.46647 11.8252 9.0498C11.2419 9.63314 10.9502 10.3415 10.9502 11.1748C10.9502 12.0081 11.2419 12.7165 11.8252 13.2998C12.4085 13.8831 13.1169 14.1748 13.9502 14.1748Z" fill="#C4C9CC"/>
</g>
</svg>
