<svg width="24" height="24" viewBox="0 0 24 24" fill="none" xmlns="http://www.w3.org/2000/svg">
<mask id="mask0_5573_102019" style="mask-type:alpha" maskUnits="userSpaceOnUse" x="0" y="0" width="24" height="24">
<rect width="24" height="24" fill="#D9D9D9"/>
</mask>
<g mask="url(#mask0_5573_102019)">
<path d="M12 13.9998C12.55 13.9998 13.021 13.8038 13.413 13.4118C13.8043 13.0205 14 12.5498 14 11.9998C14 11.4498 13.8043 10.9788 13.413 10.5868C13.021 10.1955 12.55 9.9998 12 9.9998C11.45 9.9998 10.9793 10.1955 10.588 10.5868C10.196 10.9788 10 11.4498 10 11.9998C10 12.5498 10.196 13.0205 10.588 13.4118C10.9793 13.8038 11.45 13.9998 12 13.9998ZM12 19.8998C12.75 19.6998 13.475 19.3291 14.175 18.7878C14.875 18.2458 15.475 17.6581 15.975 17.0248L13.875 14.9248C13.6083 15.1248 13.3127 15.2708 12.988 15.3628C12.6627 15.4541 12.3333 15.4998 12 15.4998C11.0333 15.4998 10.2083 15.1581 9.525 14.4748C8.84167 13.7915 8.5 12.9665 8.5 11.9998C8.5 11.0331 8.84167 10.2081 9.525 9.5248C10.2083 8.84147 11.0333 8.4998 12 8.4998C12.9667 8.4998 13.7917 8.84147 14.475 9.5248C15.1583 10.2081 15.5 11.0331 15.5 11.9998C15.5 12.3331 15.4543 12.6581 15.363 12.9748C15.271 13.2915 15.1417 13.5915 14.975 13.8748L16.825 15.7498C17.1917 15.0498 17.4793 14.3121 17.688 13.5368C17.896 12.7621 18 11.9498 18 11.0998V6.3748L12 4.1248L6 6.3748V11.0998C6 13.1165 6.56667 14.9498 7.7 16.5998C8.83333 18.2498 10.2667 19.3498 12 19.8998ZM12 21.4748C9.83333 20.8915 8.04167 19.6208 6.625 17.6628C5.20833 15.7041 4.5 13.5165 4.5 11.0998V5.3498L12 2.5498L19.5 5.3498V11.0998C19.5 13.5165 18.7917 15.7041 17.375 17.6628C15.9583 19.6208 14.1667 20.8915 12 21.4748Z" fill="#C4C9CC"/>
</g>
</svg>
