<svg width="24" height="24" viewBox="0 0 24 24" fill="none" xmlns="http://www.w3.org/2000/svg">
<path fill-rule="evenodd" clip-rule="evenodd" d="M11.3075 3.70476C11.5978 2.76508 12.9279 2.76508 13.2183 3.70476L14.9407 9.27863H20.5238C21.4803 9.27863 21.891 10.4926 21.1309 11.0733L16.5716 14.5563L18.3108 20.1845C18.5983 21.1147 17.522 21.8654 16.7483 21.2744L12.2629 17.8478L7.77741 21.2744C7.00373 21.8654 5.92748 21.1147 6.21493 20.1845L7.95416 14.5563L3.39489 11.0733C2.63478 10.4926 3.04542 9.27863 4.00195 9.27863H9.58503L11.3075 3.70476ZM12.2629 5.69353L10.6915 10.7786H5.4801L9.69621 13.9994L8.10992 19.1328L12.2629 15.9602L16.4158 19.1328L14.8295 13.9994L19.0457 10.7786H13.8343L12.2629 5.69353Z" fill="#C4C9CC"/>
</svg>
