<svg width="24" height="24" viewBox="0 0 24 24" fill="none" xmlns="http://www.w3.org/2000/svg">
<mask id="mask0_5573_101987" style="mask-type:alpha" maskUnits="userSpaceOnUse" x="0" y="0" width="24" height="24">
<rect width="24" height="24" fill="#D9D9D9"/>
</mask>
<g mask="url(#mask0_5573_101987)">
<path d="M8.81128 21.8655L7.02668 18.8578L3.63823 18.1155L3.969 14.627L1.67285 12.0001L3.969 9.37322L3.63823 5.88477L7.02668 5.14247L8.81128 2.13477L11.9997 3.48862L15.1882 2.13477L16.9728 5.14247L20.3612 5.88477L20.0305 9.37322L22.3266 12.0001L20.0305 14.627L20.3612 18.1155L16.9728 18.8578L15.1882 21.8655L11.9997 20.5116L8.81128 21.8655ZM9.44973 19.9501L11.9997 18.8693L14.5805 19.9501L15.9997 17.5501L18.7497 16.9193L18.4997 14.1001L20.3497 12.0001L18.4997 9.86934L18.7497 7.05012L15.9997 6.45012L14.5497 4.05012L11.9997 5.13089L9.41895 4.05012L7.99973 6.45012L5.24973 7.05012L5.49973 9.86934L3.64973 12.0001L5.49973 14.1001L5.24973 16.9501L7.99973 17.5501L9.44973 19.9501ZM10.9497 15.2039L16.2536 9.90012L15.1997 8.81552L10.9497 13.0655L8.79973 10.9463L7.7459 12.0001L10.9497 15.2039Z" fill="#C4C9CC"/>
</g>
</svg>
