<svg width="96" height="104" viewBox="0 0 96 104" fill="none" xmlns="http://www.w3.org/2000/svg">
<path d="M48 96C74.5097 96 96 74.5097 96 48C96 21.4903 74.5097 0 48 0C21.4903 0 0 21.4903 0 48C0 60.0091 4.41017 70.9882 11.6993 79.406L14.4994 101.252C14.7513 103.217 16.8049 104.403 18.6326 103.638L38.9385 95.1459C41.873 95.7065 44.9022 96 48 96Z" fill="#2AA9FF"/>
<path d="M55.3137 36.4212C55.8855 34.2873 54.6192 32.094 52.4853 31.5222C50.3514 30.9505 48.1581 32.2168 47.5863 34.3507L40.857 59.4647C40.2853 61.5986 41.5516 63.7919 43.6854 64.3637C45.8193 64.9355 48.0127 63.6691 48.5844 61.5353L55.3137 36.4212Z" fill="white"/>
<path d="M17.276 45.0672C15.6562 46.687 15.6562 49.3131 17.276 50.9328L29.1716 62.8284C30.7337 64.3905 33.2663 64.3905 34.8284 62.8284C36.3905 61.2663 36.3905 58.7337 34.8284 57.1716L25.6569 48L34.8284 38.8284C36.3905 37.2663 36.3905 34.7337 34.8284 33.1716C33.2663 31.6095 30.7337 31.6095 29.1716 33.1716L17.276 45.0672Z" fill="white"/>
<path d="M78.724 45.0672C80.3438 46.687 80.3438 49.3131 78.724 50.9328L66.8284 62.8284C65.2663 64.3905 62.7337 64.3905 61.1716 62.8284C59.6095 61.2663 59.6095 58.7337 61.1716 57.1716L70.3431 48L61.1716 38.8284C59.6095 37.2663 59.6095 34.7337 61.1716 33.1716C62.7337 31.6095 65.2663 31.6095 66.8284 33.1716L78.724 45.0672Z" fill="white"/>
</svg>
