<?xml version="1.0" encoding="utf-8"?>
<!-- Generator: Adobe Illustrator 22.1.0, SVG Export Plug-In . SVG Version: 6.00 Build 0)  -->
<svg version="1.1" id="Layer_1" xmlns="http://www.w3.org/2000/svg" xmlns:xlink="http://www.w3.org/1999/xlink" x="0px" y="0px"
	 viewBox="0 0 16 16" style="enable-background:new 0 0 16 16;" xml:space="preserve">
<style type="text/css">
	.st0{fill:#1F98E9;}
	.st1{fill:#FFFFFF;}
</style>
<circle class="st0" cx="8" cy="8" r="8"/>
<path class="st1" d="M5,12h3.3C10,12,11,11.1,11,9.7v0c0-1-0.7-1.8-1.8-1.9V7.7C10,7.6,10.6,6.8,10.6,6v0c0-1.2-0.9-2-2.4-2H5V12z
	 M7.9,5.1c0.8,0,1.3,0.4,1.3,1.1v0c0,0.7-0.5,1.1-1.5,1.1H6.4V5.1H7.9z M8,8.4c1.1,0,1.6,0.4,1.6,1.2v0c0,0.8-0.5,1.3-1.6,1.3H6.4
	V8.4H8z"/>
</svg>
