<svg width="24" height="24" viewBox="0 0 24 24" fill="none" xmlns="http://www.w3.org/2000/svg">
<path d="M8.08981 4.8054C8.40102 4.42238 8.86826 4.19998 9.36178 4.19998L18.3554 4.19998V8.39443C18.3554 8.80864 18.0196 9.14443 17.6054 9.14443C17.1911 9.14443 16.8554 8.80864 16.8554 8.39443L16.8554 5.69998L9.36178 5.69998C9.31995 5.69998 9.28036 5.71883 9.25398 5.75129L6.8309 8.73355C6.81079 8.7583 6.7998 8.78923 6.79981 8.82113L6.7998 18.4222L7.93869 18.4222C8.35291 18.4222 8.68869 18.758 8.68869 19.1722C8.68869 19.5864 8.35291 19.9222 7.93869 19.9222H5.2998L5.2998 8.82113C5.29981 8.44472 5.42937 8.07979 5.66673 7.78766L8.08981 4.8054Z" fill="#C4C9CC"/>
<path d="M20.0691 12.6274C18.658 10.3693 15.7376 9.57174 13.5222 10.9561C12.4532 11.6241 11.7647 12.6719 11.5023 13.8257L12.8675 14.1361C13.053 13.3201 13.5331 12.6001 14.2641 12.1433C15.7641 11.206 17.8422 11.7056 18.8818 13.3693L19.0534 13.644L17.2334 13.4475L17.0831 14.8394L21.0031 15.2628L22.1902 11.6324L20.8595 11.1973L20.281 12.9666L20.0691 12.6274Z" fill="#C4C9CC"/>
<path d="M12.3528 17.9991C13.7638 20.2572 16.6843 21.0548 18.8997 19.6705C19.9687 19.0025 20.6572 17.9546 20.9195 16.8009L19.5544 16.4905C19.3689 17.3064 18.8888 18.0264 18.1578 18.4832C16.6578 19.4205 14.5797 18.9209 13.5401 17.2572L13.369 16.9834L15.1853 17.1633L15.3233 15.7701L11.4314 15.3846L10.2223 18.973L11.549 19.42L12.1417 17.6612L12.3528 17.9991Z" fill="#C4C9CC"/>
</svg>
