<?xml version="1.0" encoding="utf-8"?>
<!-- Generator: Adobe Illustrator 22.1.0, SVG Export Plug-In . SVG Version: 6.00 Build 0)  -->
<svg version="1.1" id="Layer_1" xmlns="http://www.w3.org/2000/svg" xmlns:xlink="http://www.w3.org/1999/xlink" x="0px" y="0px"
	 viewBox="0 0 40.1 16" style="enable-background:new 0 0 40.1 16;" xml:space="preserve">
<style type="text/css">
	.st0{fill:#1F98E9;}
	.st1{fill:#1D1511;}
</style>
<g>
	<path class="st0" d="M2.9,3.2h4.8c1.3,0,2.4,1.1,2.4,2.4v4.8c0,1.3-1.1,2.4-2.4,2.4H2.9c-1.3,0-2.4-1.1-2.4-2.4V5.7
		C0.5,4.3,1.6,3.2,2.9,3.2z"/>
	<path class="st1" d="M13.5,3.3h4.6c1,0,1.8,0.3,2.4,0.8C21,4.6,21.3,5.2,21.3,6c0,0.4-0.1,0.8-0.3,1.2c-0.2,0.4-0.5,0.6-0.9,0.9
		C20.6,8.3,21,8.6,21.3,9s0.4,0.8,0.4,1.3c0,0.8-0.3,1.5-0.9,2s-1.4,0.8-2.5,0.8h-4.8C13.5,13.1,13.5,3.3,13.5,3.3z M17.9,5h-2.4
		v2.3h2.4c0.4,0,0.8-0.1,1-0.3c0.3-0.2,0.4-0.5,0.4-0.8c0-0.4-0.1-0.6-0.4-0.8C18.7,5.1,18.4,5,17.9,5z M18.1,11.4
		c0.5,0,0.8-0.1,1.1-0.3c0.3-0.2,0.4-0.5,0.4-0.9s-0.1-0.7-0.4-0.9C19,9,18.6,8.9,18.1,8.9h-2.6v2.5H18.1z M23.9,5
		c-0.3,0-0.6-0.1-0.8-0.3c-0.2-0.2-0.3-0.5-0.3-0.8s0.1-0.6,0.3-0.8c0.2-0.2,0.5-0.3,0.8-0.3s0.6,0.1,0.8,0.3
		C24.9,3.3,25,3.6,25,3.9s-0.1,0.6-0.3,0.8C24.5,4.9,24.2,5,23.9,5z M24.9,5.8V13H23V5.8H24.9z M27.3,11V7.4h-1.5V5.8h1.5V4l1.9-0.4
		v2.3h2.1v1.6h-2.1v3.2c0,0.3,0.1,0.6,0.2,0.7c0.1,0.1,0.4,0.2,0.8,0.2c0.2,0,0.3,0,0.5,0s0.3-0.1,0.5-0.1V13
		c-0.2,0.1-0.4,0.1-0.7,0.2c-0.3,0-0.5,0.1-0.7,0.1c-0.8,0-1.4-0.2-1.8-0.5C27.6,12.3,27.3,11.7,27.3,11z M31.8,9.5
		c0-0.5,0.1-1,0.3-1.5c0.2-0.5,0.5-0.9,0.8-1.2c0.4-0.3,0.8-0.6,1.2-0.8c0.5-0.2,1-0.3,1.5-0.3s1,0.1,1.5,0.3
		c0.5,0.2,0.9,0.5,1.2,0.8c0.4,0.3,0.6,0.7,0.8,1.2s0.3,0.9,0.3,1.5s-0.1,1-0.3,1.5s-0.5,0.8-0.8,1.2c-0.3,0.3-0.8,0.6-1.2,0.8
		s-1,0.3-1.5,0.3s-1-0.1-1.5-0.3s-0.9-0.5-1.2-0.8s-0.6-0.7-0.8-1.2C31.9,10.5,31.8,10,31.8,9.5z M35.7,11.6c0.6,0,1-0.2,1.4-0.6
		c0.4-0.4,0.6-0.9,0.6-1.5S37.5,8.4,37.1,8c-0.4-0.4-0.9-0.6-1.4-0.6c-0.6,0-1,0.2-1.4,0.6c-0.4,0.4-0.6,0.9-0.6,1.5
		s0.2,1.1,0.6,1.5C34.7,11.3,35.2,11.6,35.7,11.6z"/>
</g>
</svg>
