<?xml version="1.0" encoding="utf-8"?>
<!-- Generator: Adobe Illustrator 22.1.0, SVG Export Plug-In . SVG Version: 6.00 Build 0)  -->
<svg version="1.1" id="Layer_1" xmlns="http://www.w3.org/2000/svg" xmlns:xlink="http://www.w3.org/1999/xlink" x="0px" y="0px"
	 viewBox="0 0 78 33.8" style="enable-background:new 0 0 78 33.8;" xml:space="preserve">
<style type="text/css">
	.st0{fill:#286AF4;}
	.st1{fill:#FFFFFF;}
</style>
<g>
	<path d="M44.5,14.7c2.3,0.7,3.5,2.3,3.5,4.8c0,1.6-0.5,2.9-1.6,3.8c-1.1,0.9-2.5,1.4-4.3,1.4h-7.4V6.3h6.5c1.7,0,3,0.4,3.9,1.1
		c0.9,0.8,1.3,1.9,1.3,3.3c0,0.9-0.2,1.7-0.5,2.3C45.7,13.8,45.2,14.3,44.5,14.7z M37.8,13.7h3c0.9,0,1.5-0.2,2-0.5
		c0.5-0.4,0.7-1,0.7-1.8c0-0.8-0.2-1.4-0.7-1.8c-0.4-0.4-1.1-0.6-2-0.6h-3V13.7z M41.7,22c2.1,0,3.1-0.9,3.1-2.8
		c0-1-0.3-1.7-0.8-2.1c-0.5-0.4-1.3-0.7-2.3-0.7h-4V22H41.7z"/>
	<path d="M50,6.3h2.9v3H50V6.3z M50,11.7h2.9v13H50V11.7z"/>
	<path d="M60.1,25c-1.1,0-2-0.3-2.6-1c-0.6-0.6-0.9-1.4-0.9-2.3V14h-2l0.3-2.4h1.7v-3l2.9-0.3v3.3h3.1V14h-3.1v6.3
		c0,0.8,0,1.3,0.1,1.6c0.1,0.3,0.3,0.5,0.6,0.6c0.3,0.1,0.8,0.1,1.6,0.1h0.8L62.3,25H60.1z"/>
	<path d="M70,25c-1.3,0-2.5-0.3-3.5-0.9c-1-0.6-1.8-1.4-2.3-2.5c-0.5-1-0.8-2.2-0.8-3.4c0-1.2,0.3-2.4,0.8-3.4
		c0.5-1,1.3-1.8,2.3-2.4c1-0.6,2.2-0.9,3.5-0.9c1.4,0,2.5,0.3,3.5,0.9c1,0.6,1.8,1.4,2.3,2.4c0.5,1,0.8,2.2,0.8,3.4
		c0,1.2-0.3,2.4-0.8,3.4c-0.5,1-1.3,1.9-2.3,2.5C72.5,24.7,71.3,25,70,25z M70,22.5c1.1,0,2-0.4,2.7-1.2c0.6-0.8,1-1.8,1-3.2
		c0-1.3-0.3-2.4-1-3.1c-0.6-0.8-1.5-1.2-2.7-1.2s-2,0.4-2.7,1.2c-0.6,0.8-0.9,1.8-0.9,3.1c0,1.3,0.3,2.4,0.9,3.2
		C67.9,22.1,68.8,22.5,70,22.5z"/>
	<path class="st0" d="M16,29.7c7.8,0,14.1-6.3,14.1-14.1C30,7.9,23.7,1.6,16,1.6C8.2,1.6,1.9,7.9,1.9,15.6c0,3.5,1.3,6.7,3.4,9.2
		l0.8,6.4c0.1,0.6,0.7,0.9,1.2,0.7l5.9-2.5C14.2,29.6,15.1,29.7,16,29.7z"/>
	<path class="st1" d="M18.1,12.2c0.2-0.6-0.2-1.3-0.8-1.4c-0.6-0.2-1.3,0.2-1.4,0.8l-2,7.4c-0.2,0.6,0.2,1.3,0.8,1.4
		c0.6,0.2,1.3-0.2,1.4-0.8L18.1,12.2z"/>
	<path class="st1" d="M7,14.8c-0.5,0.5-0.5,1.2,0,1.7l3.5,3.5c0.5,0.5,1.2,0.5,1.7,0c0.5-0.5,0.5-1.2,0-1.7l-2.7-2.7l2.7-2.7
		c0.5-0.5,0.5-1.2,0-1.7c-0.5-0.5-1.2-0.5-1.7,0L7,14.8z"/>
	<path class="st1" d="M25,14.8c0.5,0.5,0.5,1.2,0,1.7L21.5,20c-0.5,0.5-1.2,0.5-1.7,0c-0.5-0.5-0.5-1.2,0-1.7l2.7-2.7l-2.7-2.7
		c-0.5-0.5-0.5-1.2,0-1.7c0.5-0.5,1.2-0.5,1.7,0L25,14.8z"/>
</g>
</svg>
